<?xml version="1.0" encoding="UTF-8"?>
<svg version="1.1" xmlns="http://www.w3.org/2000/svg" width="300" height="300">
<path d="M0 0 C1.20333984 -0.020625 2.40667969 -0.04125 3.64648438 -0.0625 C19.3994862 -0.13058429 36.63296983 4.48991019 49.3125 14.25 C49.3125 14.91 49.3125 15.57 49.3125 16.25 C50.9625 16.91 52.6125 17.57 54.3125 18.25 C54.3125 18.91 54.3125 19.57 54.3125 20.25 C55.116875 20.559375 55.116875 20.559375 55.9375 20.875 C59.23228009 22.78250426 61.90613628 25.29819384 64.3125 28.25 C64.3125 28.91 64.3125 29.57 64.3125 30.25 C65.3025 30.58 66.2925 30.91 67.3125 31.25 C71.3125 36.62142857 71.3125 36.62142857 71.3125 39.25 C73.0140625 38.755 73.0140625 38.755 74.75 38.25 C84.67719131 36.04745359 96.63196617 36.006172 106.3125 39.25 C107.31539062 39.56839844 108.31828125 39.88679688 109.3515625 40.21484375 C124.43360823 45.46000485 136.16483423 55.58002742 144.3125 69.25 C144.7146875 70.8896875 144.7146875 70.8896875 145.125 72.5625 C147.15700472 77.16124752 151.86564725 78.35801607 156.3125 80.25 C169.79667843 86.14932806 179.62442694 97.86629867 185.3125 111.25 C190.31599596 127.52418347 188.74976829 145.64282601 181.08984375 160.64453125 C180.22555096 162.21512783 179.28191649 163.7420188 178.3125 165.25 C177.6525 165.25 176.9925 165.25 176.3125 165.25 C175.9825 166.57 175.6525 167.89 175.3125 169.25 C174.6525 169.25 173.9925 169.25 173.3125 169.25 C172.9825 170.24 172.6525 171.23 172.3125 172.25 C171.6525 172.25 170.9925 172.25 170.3125 172.25 C170.05726563 172.85070312 169.80203125 173.45140625 169.5390625 174.0703125 C165.1776762 181.82080153 153.57672305 185.13751156 145.50228882 187.68280792 C139.33084682 189.28131504 132.97924743 188.97605502 126.65625 188.8359375 C125.13213804 188.82470442 123.60800396 188.81618378 122.0838623 188.81021118 C118.13129595 188.78763464 114.18011764 188.72899643 110.22808838 188.6619873 C106.17178105 188.59987744 102.11524262 188.57305183 98.05859375 188.54296875 C90.14253065 188.47920903 82.22784947 188.37395544 74.3125 188.25 C74.3125 181.65 74.3125 175.05 74.3125 168.25 C76.16335205 168.2406543 78.0142041 168.23130859 79.92114258 168.22167969 C86.07600256 168.18597985 92.23049901 168.13207386 98.38510609 168.06609726 C102.11214116 168.0267962 105.83894612 167.99452369 109.56616211 167.97900391 C113.17154189 167.96372129 116.77628827 167.92907532 120.3813839 167.88169098 C121.7482416 167.86699543 123.1151898 167.85896587 124.48212624 167.85811615 C136.83955498 167.84272658 146.99569715 165.73722451 156.3125 157.25 C160.72938087 152.73273548 162.96476968 148.00424097 165.3125 142.25 C165.6425 141.59 165.9725 140.93 166.3125 140.25 C166.92649178 130.97973073 167.44475573 122.35825125 162.3125 114.25 C161.44625 112.703125 161.44625 112.703125 160.5625 111.125 C152.46649822 100.78010883 143.03662842 97.05753974 130.3125 95.25 C130.02117187 94.26 129.72984375 93.27 129.4296875 92.25 C127.29022166 85.26779447 125.35218357 79.26253566 120.44921875 73.66796875 C119.3125 72.25 119.3125 72.25 119.3125 70.25 C118.3225 69.92 117.3325 69.59 116.3125 69.25 C116.3125 68.59 116.3125 67.93 116.3125 67.25 C115.673125 67.023125 115.03375 66.79625 114.375 66.5625 C110.93627631 65.08876128 107.80794914 63.27810979 104.59375 61.37109375 C96.85426934 57.5676161 85.22142673 58.10496166 76.9296875 60.0390625 C73.2538949 61.35113016 70.01238632 62.81099945 66.703125 64.88671875 C64.3125 66.25 64.3125 66.25 61.3125 66.25 C60.98378906 65.34121094 60.98378906 65.34121094 60.6484375 64.4140625 C55.62519632 51.14127076 48.40695176 39.79755501 36 32.44140625 C35.443125 32.04824219 34.88625 31.65507813 34.3125 31.25 C34.3125 30.59 34.3125 29.93 34.3125 29.25 C33.673125 29.1675 33.03375 29.085 32.375 29 C28.8492769 28.13655761 25.80505891 26.73679134 22.51171875 25.234375 C9.15500688 19.2558823 -7.72890645 19.51028416 -21.48046875 24.203125 C-25.17507108 25.63191782 -28.38185588 27.04623726 -31.6875 29.25 C-32.6775 29.25 -33.6675 29.25 -34.6875 29.25 C-34.6875 29.91 -34.6875 30.57 -34.6875 31.25 C-36.08557385 32.20478214 -37.48865155 33.15293867 -38.9140625 34.06640625 C-51.80240056 42.66809443 -59.80364311 56.56961431 -63.125 71.5625 C-64.28703349 79.68423946 -63.84011451 88.06816675 -63.6875 96.25 C-64.4609375 96.52972656 -65.234375 96.80945313 -66.03125 97.09765625 C-72.42040686 99.55684905 -77.28083218 102.0628118 -82.1640625 106.89453125 C-83.6875 108.25 -83.6875 108.25 -85.6875 108.25 C-85.935 109.054375 -86.1825 109.85875 -86.4375 110.6875 C-87.6875 114.25 -87.6875 114.25 -88.7109375 116.0546875 C-93.10476688 124.0632985 -93.24123114 134.39179944 -90.921875 143.13671875 C-89.99012022 145.31451068 -88.95290839 147.2508305 -87.6875 149.25 C-87.11 150.28125 -86.5325 151.3125 -85.9375 152.375 C-79.88908211 160.10353397 -72.36338745 165.2487478 -62.6875 167.25 C-60.61042012 167.36439672 -58.53021922 167.42620193 -56.45019531 167.45532227 C-55.18919006 167.47526749 -53.92818481 167.49521271 -52.62896729 167.51576233 C-51.25785443 167.53274401 -49.8867403 167.54962291 -48.515625 167.56640625 C-47.10886033 167.58698835 -45.70210167 167.60798515 -44.29534912 167.62937927 C-40.59976073 167.68447035 -36.90411774 167.73393655 -33.20843506 167.78222656 C-29.43448041 167.83253649 -25.66060468 167.88817293 -21.88671875 167.94335938 C-14.48704425 168.05078231 -7.08730329 168.15176973 0.3125 168.25 C0.3125 174.85 0.3125 181.45 0.3125 188.25 C-8.40761662 188.3865582 -17.12700189 188.49620066 -25.8479538 188.56087303 C-29.89920868 188.5919416 -33.94968267 188.63395278 -38.00048828 188.70263672 C-41.92336992 188.76872127 -45.84550955 188.803889 -49.76890564 188.81926346 C-51.25182248 188.83019292 -52.73470728 188.8515261 -54.21730042 188.88438034 C-69.6740063 189.21269644 -84.14511101 185.107671 -95.6875 174.25 C-95.6875 173.59 -95.6875 172.93 -95.6875 172.25 C-96.6775 171.92 -97.6675 171.59 -98.6875 171.25 C-98.6875 170.59 -98.6875 169.93 -98.6875 169.25 C-99.3475 169.25 -100.0075 169.25 -100.6875 169.25 C-112.03573259 154.02077012 -114.27133699 138.94927968 -112.6875 120.25 C-111.49144559 112.21251439 -107.98844307 105.07157774 -103.6875 98.25 C-103.0275 98.25 -102.3675 98.25 -101.6875 98.25 C-101.44773437 97.51007813 -101.20796875 96.77015625 -100.9609375 96.0078125 C-99.50643398 92.85787544 -97.94668091 91.35661506 -95.3125 89.125 C-94.54164062 88.46242188 -93.77078125 87.79984375 -92.9765625 87.1171875 C-87.00967573 82.25 -87.00967573 82.25 -84.6875 82.25 C-84.71070312 81.56035156 -84.73390625 80.87070313 -84.7578125 80.16015625 C-85.10000135 62.34189402 -78.21394118 43.89591273 -66.6875 30.25 C-66.0275 30.25 -65.3675 30.25 -64.6875 30.25 C-64.48125 29.71375 -64.275 29.1775 -64.0625 28.625 C-62.15499574 25.33021991 -59.63930616 22.65636372 -56.6875 20.25 C-56.0275 20.25 -55.3675 20.25 -54.6875 20.25 C-54.1925 18.765 -54.1925 18.765 -53.6875 17.25 C-51.625 16.5625 -51.625 16.5625 -49.6875 16.25 C-49.6875 15.59 -49.6875 14.93 -49.6875 14.25 C-43.9954346 9.52368348 -36.85086723 6.98286321 -30 4.4375 C-29.19264404 4.13561768 -28.38528809 3.83373535 -27.5534668 3.52270508 C-18.39536062 0.23052624 -9.66187327 0.04074591 0 0 Z " fill="#009DDB" transform="translate(112.6875,41.75)"/>
<path d="M0 0 C1.32 0.66 2.64 1.32 4 2 C4 2.66 4 3.32 4 4 C4.99 4.33 5.98 4.66 7 5 C8.3540932 6.98600337 9.68457624 8.98817543 11 11 C12.6625259 12.67079717 14.32963649 14.3370384 16 16 C17.50274731 17.77193509 18.98199881 19.56405556 20.4375 21.375 C23.08924657 24.66085989 25.76481469 27.90018746 28.5625 31.0625 C31 34 31 34 31 36 C31.66 36 32.32 36 33 36 C34.9453125 38.1171875 34.9453125 38.1171875 37.125 40.875 C38.21167969 42.23238281 38.21167969 42.23238281 39.3203125 43.6171875 C41 46 41 46 41 48 C41.66 48 42.32 48 43 48 C43.99 50.475 43.99 50.475 45 53 C45.66 53 46.32 53 47 53 C47.495 54.98 47.495 54.98 48 57 C38.76 57 29.52 57 20 57 C20 81.75 20 106.5 20 132 C7.46 132 -5.08 132 -18 132 C-18 107.25 -18 82.5 -18 57 C-27.24 57 -36.48 57 -46 57 C-45.67 55.68 -45.34 54.36 -45 53 C-44.34 53 -43.68 53 -43 53 C-42.34 51.35 -41.68 49.7 -41 48 C-40.34 48 -39.68 48 -39 48 C-38.5978125 47.14148438 -38.5978125 47.14148438 -38.1875 46.265625 C-36.95867364 43.92115366 -35.57477824 41.87595062 -34 39.75 C-33.484375 39.04359375 -32.96875 38.3371875 -32.4375 37.609375 C-31.963125 37.07828125 -31.48875 36.5471875 -31 36 C-30.34 36 -29.68 36 -29 36 C-28.72526855 35.40687012 -28.45053711 34.81374023 -28.16748047 34.20263672 C-27.05080836 32.09585802 -25.89442955 30.53623332 -24.3203125 28.7578125 C-23.80339844 28.16613281 -23.28648438 27.57445312 -22.75390625 26.96484375 C-22.21636719 26.35769531 -21.67882812 25.75054687 -21.125 25.125 C-17.40003915 20.91062823 -14.08740445 16.71912478 -11 12 C-9.35305515 10.31384218 -7.68873879 8.64429829 -6 7 C-5.34 6.01 -4.68 5.02 -4 4 C-3.34 4 -2.68 4 -2 4 C-1.34 2.68 -0.68 1.36 0 0 Z " fill="#009DDB" transform="translate(149,126)"/>
</svg>
